<svg width="200" height="200" viewBox="0 0 200 200" fill="none" xmlns="http://www.w3.org/2000/svg">
<g clip-path="url(#clip0_1_6)">
<path d="M100.445 1.72318e-06C99.6096 -0.0332709 98.7845 0.196236 98.086 0.656252C84.3642 9.67584 78.4178 19.4229 76.7656 28.0781C76.6648 28.056 76.5632 28.0377 76.461 28.0234C76.461 28.0234 74.0466 27.7482 70.2266 28.0156C66.4066 28.2831 61.177 29.0965 55.5547 31.2734C44.3101 35.6272 31.2107 45.7137 24.2031 66.7344C22.389 72.1769 19.7596 75.842 17.0078 77.4219C14.2561 79.0017 11.0621 79.2231 5.87501 76.4688C5.26562 76.1455 4.583 75.9853 3.89343 76.0038C3.20386 76.0222 2.53078 76.2187 1.93954 76.574C1.34831 76.9294 0.859013 77.4316 0.519171 78.0319C0.179328 78.6322 0.000486935 79.3102 1.44509e-05 80C1.44509e-05 80 -0.0467467 96.4707 5.1797 113.195C7.79293 121.558 11.7215 130.087 17.9531 136.734C24.1848 143.382 32.9333 148 44 148H50.0156C52.1268 154.996 56.8824 160.594 58.6172 163.125C61.3309 167.087 63.7246 175.041 68.3516 182.266C72.9786 189.49 80.812 196 93.2813 196H106.719C119.159 196 127.002 189.644 131.641 182.469C136.28 175.294 138.634 167.339 141.43 163.055C143.015 160.623 147.827 155.019 149.969 148H156C167.067 148 175.815 143.382 182.047 136.734C188.279 130.087 192.207 121.558 194.82 113.195C200.047 96.4707 200 80 200 80C200 79.3102 199.821 78.6322 199.481 78.0319C199.141 77.4316 198.652 76.9294 198.06 76.574C197.469 76.2187 196.796 76.0222 196.107 76.0038C195.417 75.9853 194.734 76.1455 194.125 76.4688C188.938 79.2231 185.744 79.0017 182.992 77.4219C180.24 75.842 177.611 72.1769 175.797 66.7344C168.789 45.7137 155.69 35.6272 144.445 31.2734C138.823 29.0965 133.593 28.2831 129.773 28.0156C125.953 27.7482 123.539 28.0234 123.539 28.0234C122.941 28.095 122.367 28.3007 121.859 28.625C120.367 25.8605 118.086 23.1843 114.836 20.7813C107.192 15.1286 104.828 10.807 104.125 8.38281C103.774 7.17075 103.81 6.39935 103.867 5.97656C103.924 5.55378 103.852 5.8125 103.852 5.8125C104.156 5.21461 104.305 4.54974 104.285 3.87908C104.266 3.20842 104.077 2.55352 103.738 1.97465C103.399 1.39578 102.92 0.911528 102.344 0.566462C101.769 0.221396 101.116 0.0266002 100.445 1.72318e-06ZM97.0313 11.7109C98.5933 16.1037 102.109 21.326 110.078 27.2188C113.586 29.8128 115.038 32.198 115.648 34.3281C116.259 36.4582 116.04 38.5272 115.367 40.5469C114.021 44.5863 110.906 47.7578 110.906 47.7578C110.695 47.9581 110.507 48.1807 110.344 48.4219C105.738 50.419 102.026 52 100 52C98.1356 52 94.7381 50.6027 90.6406 48.8359C89.9005 48.0464 85.6234 43.2604 84.4531 36.3359C83.3439 29.7724 85.2813 21.2971 97.0313 11.7109ZM74.1953 35.8906C75.0617 35.9171 75.5391 35.9766 75.5391 35.9766C75.8296 36.0111 76.123 36.0138 76.4141 35.9844C76.4722 36.5411 76.4715 37.1256 76.5625 37.6641C77.0048 40.2811 77.7743 42.6686 78.6797 44.7734C76.565 44.336 74.3713 44 72 44C62.0735 44 53.8414 48.8343 48.3828 55.6719C42.9243 62.5094 40 71.3101 40 80C40 101.091 44.4466 109.832 49.375 119.82C50.907 122.927 50.9375 125.815 50.4844 129.344C50.0795 132.498 49.2177 136.045 49.0313 140H44C35.0667 140 28.8152 136.619 23.7969 131.266C18.7786 125.913 15.2071 118.442 12.8203 110.805C9.36168 99.737 8.61903 90.6598 8.34376 85.3281C12.9376 86.3808 17.3719 86.4379 20.9922 84.3594C26.2404 81.3462 29.6111 75.8231 31.7969 69.2656C38.1213 50.2943 49.023 42.3826 58.4453 38.7344C65.5121 35.9982 71.5961 35.8112 74.1953 35.8906ZM125.805 35.8906C128.404 35.8112 134.488 35.9982 141.555 38.7344C150.977 42.3826 161.879 50.2943 168.203 69.2656C170.389 75.8231 173.76 81.3462 179.008 84.3594C182.628 86.4379 187.062 86.3808 191.656 85.3281C191.381 90.6598 190.638 99.737 187.18 110.805C184.793 118.442 181.221 125.913 176.203 131.266C171.185 136.619 164.933 140 156 140H150.969C150.783 136.02 149.921 132.468 149.516 129.32C149.063 125.8 149.091 122.94 150.625 119.828C155.553 109.836 160 101.091 160 80C160 71.3101 157.076 62.5094 151.617 55.6719C146.159 48.8343 137.927 44 128 44C126.03 44 124.175 44.2175 122.383 44.5312C122.578 44.0533 122.784 43.5851 122.953 43.0781C123.652 40.9822 124.049 38.5576 123.93 36C124.107 36.004 124.285 35.9961 124.461 35.9766C124.461 35.9766 124.938 35.9171 125.805 35.8906ZM72 52C77.1111 52 81.743 53.7231 86.2344 55.6719C90.7258 57.6206 94.9407 60 100 60C105.059 60 109.274 57.6206 113.766 55.6719C118.257 53.7231 122.889 52 128 52C135.394 52 141.156 55.3886 145.367 60.6641C149.579 65.9395 152 73.1419 152 80C152 100.053 148.445 106.169 143.453 116.289C141.015 121.234 141.046 126.148 141.586 130.344C142.126 134.54 143.039 138.195 143.039 141.406C143.039 146.953 137.524 154.389 134.727 158.68C130.803 164.692 128.683 172.308 124.922 178.125C121.161 183.942 116.679 188 106.719 188H93.2813C83.3506 188 78.8589 183.844 75.086 177.953C71.313 172.062 69.225 164.451 65.2188 158.602C62.4321 154.537 56.961 146.984 56.961 141.406C56.961 138.237 57.8742 134.572 58.4141 130.367C58.9539 126.162 58.9869 121.23 56.5469 116.281C51.5553 106.165 48 100.053 48 80C48 73.1419 50.4214 65.9395 54.6328 60.6641C58.8443 55.3886 64.6065 52 72 52ZM80 108V120C80 122.007 79.9029 124.097 79.8281 126.172C74.746 125.595 70.0703 125.164 70.0703 125.164L68.1875 125.016L67.9297 126.883C67.4842 130.087 68.8488 133.167 71.1485 135.445C73.0549 137.334 75.6418 138.706 78.586 139.43C78.5836 139.438 78.5805 139.453 78.5781 139.461C77.4781 143.345 76.0338 145.851 74.7578 148.063C73.2778 150.627 72 152.852 72 156C72 161.32 76.068 164.5 80 164.5C83.5 164.5 84.7811 166.592 84.9531 166.852C88.6691 172.536 91.6842 180 99.9922 180C108.3 180 111.315 172.536 115.031 166.852C115.195 166.6 116.5 164.5 120 164.5C123.932 164.5 128 161.278 128 155.898C128 152.626 126.707 150.332 125.211 147.672C124.01 145.536 122.644 143.101 121.422 139.43C124.363 138.706 126.945 137.332 128.852 135.445C131.151 133.169 132.513 130.088 132.07 126.883L131.813 125.023L129.938 125.164C129.938 125.164 125.228 125.584 120.117 126.156C120.054 124.09 119.969 122.01 119.977 120.008C120.001 113.504 120 108 120 108H116C116 108 116.001 113.496 115.977 119.992C115.968 122.144 116.052 124.388 116.125 126.609C115.841 126.647 115.586 126.664 115.305 126.703C108.558 127.64 105.422 128.594 105.422 128.594L103.789 129.086L104.023 130.781C104.469 133.985 106.62 136.576 109.453 138.141C111.739 139.403 114.507 140.024 117.445 139.961C117.5 140.158 117.545 140.454 117.602 140.625C118.95 144.709 120.491 147.433 121.727 149.625C123.099 152.061 124.008 153.678 124.008 155.898C124.008 158.778 121.976 160.492 120.008 160.492C117.644 160.492 115.079 160.883 112.883 163.039C111.247 164.647 109.395 165.996 107.203 166.672C104.851 167.404 102.32 168 100 168C97.68 168 95.1527 167.404 92.8047 166.68C90.6127 166.004 88.7532 164.655 87.1172 163.047C84.9252 160.891 82.364 160.508 80 160.508C78.06 160.508 76 158.928 76 156.008C76 153.924 76.8866 152.391 78.2266 150.063C79.5466 147.767 81.1859 144.911 82.4219 140.555C82.4645 140.403 82.4974 140.134 82.5391 139.961C85.4856 140.027 88.2632 139.405 90.5547 138.141C93.388 136.577 95.5388 133.985 95.9844 130.781L96.2188 129.086L94.5703 128.594C94.5703 128.594 91.4764 127.679 84.7344 126.742C84.4191 126.698 84.132 126.675 83.8125 126.633C83.8972 124.408 84 122.161 84 120V108H80ZM127.297 129.469C126.995 130.537 127.014 131.637 126.039 132.602C124.433 134.191 121.947 135.453 119.023 135.859C116.098 136.266 113.362 135.725 111.383 134.633C110.159 133.957 109.86 132.874 109.281 131.906C110.252 131.661 111.427 131.378 114.188 130.945C114.622 132.684 116.127 134 118 134C120.208 134 122 132.208 122 130C122 129.982 121.978 129.971 121.977 129.953C124.19 129.731 126.057 129.572 127.297 129.469ZM72.7031 129.477C73.9441 129.584 75.8058 129.743 78.0156 129.969C78.0152 129.981 78 129.988 78 130C78 132.208 79.792 134 82 134C83.864 134 85.3615 132.695 85.8047 130.969C88.5826 131.4 89.7448 131.673 90.7188 131.914C90.1397 132.882 89.8419 133.965 88.6172 134.641C86.6375 135.733 83.9002 136.272 80.9766 135.867C78.0515 135.461 75.5673 134.193 73.961 132.602C72.9883 131.638 73.0048 130.542 72.7031 129.477ZM84 148V150C84 153.32 86.68 156 90 156C91 156 91.9188 155.72 92.7188 155.32C93.9988 158.08 96.76 160 100 160C103.24 160 106.001 158.08 107.281 155.32C108.081 155.72 109 156 110 156C113.32 156 116 153.32 116 150V148H84Z" fill="#DA365F"/>
</g>
<defs>
<clipPath id="clip0_1_6">
<rect width="200" height="200" fill="white"/>
</clipPath>
</defs>
</svg>
